<?xml version="1.0" encoding="utf-8"?>
<!-- Generator: Adobe Illustrator 23.0.1, SVG Export Plug-In . SVG Version: 6.00 Build 0)  -->
<!DOCTYPE svg PUBLIC "-//W3C//DTD SVG 1.1//EN" "http://www.w3.org/Graphics/SVG/1.1/DTD/svg11.dtd" [
	<!ENTITY ns_extend "http://ns.adobe.com/Extensibility/1.0/">
	<!ENTITY ns_ai "http://ns.adobe.com/AdobeIllustrator/10.0/">
	<!ENTITY ns_graphs "http://ns.adobe.com/Graphs/1.0/">
	<!ENTITY ns_vars "http://ns.adobe.com/Variables/1.0/">
	<!ENTITY ns_imrep "http://ns.adobe.com/ImageReplacement/1.0/">
	<!ENTITY ns_sfw "http://ns.adobe.com/SaveForWeb/1.0/">
	<!ENTITY ns_custom "http://ns.adobe.com/GenericCustomNamespace/1.0/">
	<!ENTITY ns_adobe_xpath "http://ns.adobe.com/XPath/1.0/">
]>
<svg version="1.1" id="Calque_1" xmlns:x="&ns_extend;" xmlns:i="&ns_ai;" xmlns:graph="&ns_graphs;"
	 xmlns="http://www.w3.org/2000/svg" xmlns:xlink="http://www.w3.org/1999/xlink" x="0px" y="0px" viewBox="0 0 1171.9 144.1"
	 style="enable-background:new 0 0 1171.9 144.1;" xml:space="preserve">
<style type="text/css">
	.st0{fill:#232323;}
	.st1{fill:#EB0032;}
</style>
<metadata>
	<sfw  xmlns="&ns_sfw;">
		<slices></slices>
		<sliceSourceBounds  bottomLeftOrigin="true" height="144.1" width="1171.9" x="374.3" y="-191.5"></sliceSourceBounds>
	</sfw>
</metadata>
<g>
	<g>
		<g>
			<g>
				<path class="st0" d="M207.5,107.4V35.1h18.7v5.8c5.5-4.5,12.4-7.3,20.4-7.3c10,0,19.1,4.5,25.1,11.6c4.8,5.7,7.5,13,7.5,25.4
					v36.9h-19.4V69.1c0-7.2-1.6-10.9-4.3-13.6c-2.5-2.5-6.4-4-10.9-4c-8.2,0-14.9,5.2-17.6,9v47H207.5z"/>
				<path class="st0" d="M433.9,95.9c-7,8.4-18.5,13-29.7,13c-21.6,0-37.9-14.9-37.9-37.6c0-20.1,13.7-37.8,35.2-37.8
					c20,0,34.2,16.9,34.2,37c0,1.9-0.1,3.9-0.4,5.5h-50.1c1,10.1,9.3,17.2,19.5,17.2c8.2,0,14.8-4.6,18.2-8.4L433.9,95.9z
					 M415.9,61.9c-0.6-6.4-6.4-12.7-14.3-12.7c-8.1,0-14.6,6.1-15.5,12.7H415.9z"/>
				<path class="st0" d="M191.7,107.4h-18.7v-5.8c-6,5.1-12.8,7.3-20.1,7.3c-10.7,0-20.9-4.8-27.3-12.2c-5.7-6.6-9.3-15.5-9.3-25.4
					c0-21.3,15.8-37.8,35.5-37.8c8.2,0,15.5,2.7,21.2,7.3v-5.8h18.7V107.4z M172.4,60.4c-4-5.4-10.4-9-17.9-9
					c-11.3,0-18.7,9.4-18.7,19.8c0,11.3,8.2,19.7,19.1,19.7c7.3,0,13.7-3.6,17.5-9V60.4z"/>
				<path class="st0" d="M361.9,92.7c-8.5,11.3-19.2,16.3-32.8,16.3c-22.4,0-38.8-16.7-38.8-37.6c0-21,16.9-37.8,38.9-37.8
					c12.5,0,23.7,5.8,30.4,14.5l-13.7,12.1c-3.9-5.1-9.7-8.7-16.7-8.7c-11.2,0-19.5,8.8-19.5,19.8c0,11.3,8.2,19.7,20,19.7
					c7.9,0,14.2-4.8,17.3-9.6L361.9,92.7z"/>
				<path class="st0" d="M113.4,52.2c-1.3-0.4-4.2-0.7-7-0.7c-8.5,0-15.2,6.1-17.6,10.4v45.5H69.4V35.1H88v7.3
					c4.3-5.4,12.2-8.8,21-8.8c2.8,0,4.5,0.3,6.6,0.6L113.4,52.2z"/>
				<path class="st0" d="M57.4,17.9c-1.6-0.4-4-0.7-5.8-0.7c-4.8,0-8.5,1.3-10.9,4.2c-1.6,2.1-2.7,4.8-2.7,11.5v2.2h22.4v16.4H38.1
					v56H18.7v-56H0V35.1h18.7v-3c0-11.6,2.7-18.7,7.8-23.6C31.5,3.6,39.1,0,48.9,0c3.9,0,7.5,0.3,11.5,1.3L57.4,17.9z"/>
			</g>
			<g>
				<circle class="st0" cx="473.8" cy="71.3" r="19.8"/>
				<path class="st0" d="M536.8,35.1V14.9h-19.4v20.1h-18.6v16.4h18.6v25.4c0,10.3,1.6,16.7,5.4,21.6c4.9,6.6,13.4,10.4,25.1,10.4
					c3.7,0,9.6-0.6,12.1-1.5l-3-16.4c-1.3,0.3-5.1,0.7-7.9,0.7c-4.8,0-7.9-1.3-9.8-3.6c-1.6-1.9-2.4-4.6-2.4-9.1V51.5h23.9l25.7,56
					h13.4l33.3-72.4h-20.1l-19.8,44.2l-19.8-44.2H536.8z"/>
			</g>
		</g>
	</g>
	<g>
		<path class="st1" d="M705.2,41.6c-6.3-5.1-14.7-8.1-23-8.1c-9.1,0-17.8,3.3-24.2,9.2v-7.7h-11.1v109.1h11.4V99.7
			c5.9,5.9,14.2,9.3,23.4,9.3c7.9,0,15.2-2.3,21.6-6.8c9.8-6.9,15.4-18.1,15.4-30.9C718.6,59.7,713.7,48.9,705.2,41.6z M681.8,98
			c-9.5,0-18.2-5.3-23.6-14.3V57.6c3.3-5.4,12.2-13.1,23.7-13.1c5.7,0,11.5,2.1,16,5.7c5.9,4.9,9.3,12.6,9.3,21.1
			c0,9.1-3.9,17.2-10.4,21.8C692,96.4,687,98,681.8,98z"/>
		<path class="st1" d="M784.7,84.5c-4.5,8.2-13,13.5-21.9,13.5c-6.8,0-12.8-3.1-16.5-8.6c-2.3-3.4-3.7-7.6-3.7-17.3V35.1h-11.4v38.5
			c0,8.8,1.3,14.9,4.3,20.4c5.4,9.4,15.6,15,27.3,15c8.3,0,16.6-3.4,22.2-8.8v7.3h11.1V35.1h-11.4V84.5z"/>
		<g>
			<rect x="924.8" y="35.1" class="st1" width="11.4" height="72.4"/>
			<path class="st1" d="M930.4,3.1c-5,0-9,4.1-9,9.1c0,5,3.9,9,9,9c5,0,9.1-4,9.1-9C939.5,7.2,935.4,3.1,930.4,3.1z"/>
		</g>
		<path class="st1" d="M1007.8,88.8c-5.7,6-12.8,9.2-20.4,9.2c-15.3,0-27.2-11.8-27.2-26.8c0-14.8,11.7-26.8,26-26.8
			c7.5,0,14.4,2.9,20.2,8.5l1,1l7.3-8.3l-0.9-0.9c-7.5-7.5-16.7-11.2-27.5-11.2c-21,0-37.4,16.6-37.4,37.7
			c0,10.8,4.2,20.6,11.9,27.6c7.2,6.6,16.8,10.2,26.9,10.2c11,0,21.3-4.6,28.5-12.5l0.9-1l-8.2-7.6L1007.8,88.8z"/>
		<g>
			<path class="st1" d="M1030.8,3.1c-5,0-9,4.1-9,9.1c0,5,3.9,9,9,9c5,0,9.1-4,9.1-9C1039.9,7.2,1035.8,3.1,1030.8,3.1z"/>
			<rect x="1025.2" y="35.1" class="st1" width="11.4" height="72.4"/>
		</g>
		<path class="st1" d="M1096,97.2c-2.4,0.7-5.2,0.9-7.1,0.9c-4.6,0-8.3-1.5-10.6-4.4c-1.4-1.8-2.8-4.3-2.8-10.8V46h23.7V35.1h-23.7
			v-19h-11.4v19h-19.6V46h19.6v36.6c0,8.1,1.6,13.6,5,18c5.8,7.4,14.9,8.5,19.7,8.5c2.8,0,6.9-0.4,9.4-1.3l1.1-0.4l-2-10.6
			L1096,97.2z"/>
		<path class="st1" d="M870.1,41.6c-6.3-5.1-14.7-8.1-23-8.1c-9,0-17.4,3.2-23.9,9V5.9h-11.4v101.5h11.1v-7.9
			c5.8,6,14.4,9.5,23.7,9.5c7.9,0,15.2-2.3,21.6-6.8c9.8-6.9,15.4-18.1,15.4-30.9C883.6,59.7,878.7,48.9,870.1,41.6z M861.8,93.1
			c-4.8,3.3-9.8,5-15,5c-9.5,0-18.2-5.3-23.6-14.3V57.6c3.3-5.4,12.2-13.1,23.7-13.1c5.7,0,11.5,2.1,16,5.7
			c5.9,4.9,9.3,12.6,9.3,21.1C872.2,80.3,868.3,88.5,861.8,93.1z"/>
		<g>
			<path class="st1" d="M1138.1,33.5c-19.8,0-34.7,16.2-34.7,37.7c0,21.9,15.3,37.7,36.3,37.7c11.9,0,22.9-5,29.5-13.3l0.8-1l-8-7.6
				l-0.9,1.1c-5.3,6.5-12.7,9.9-21.3,9.9c-15.8,0-23.8-12.5-24.9-24.7h56.6l0.1-1.2c0.2-1.4,0.2-2.6,0.2-3.2
				C1171.9,48.8,1157.4,33.5,1138.1,33.5z M1138.1,44.5c10.7,0,19.5,7.4,21.8,18.3h-44.2C1118.7,51.6,1127.4,44.5,1138.1,44.5z"/>
			<polygon class="st1" points="1141.9,5.9 1132.3,26.4 1142,26.4 1156,5.9 			"/>
		</g>
		<rect x="896.2" y="5.9" class="st1" width="11.4" height="101.5"/>
	</g>
</g>
</svg>
